<svg width="24" height="26" viewBox="0 0 24 26" fill="none" xmlns="http://www.w3.org/2000/svg">
<path d="M22.8337 21.9922V13.1879C22.8337 12.5754 22.7134 11.9693 22.48 11.4068C22.2465 10.8442 21.905 10.3371 21.4762 9.91642L13.4888 2.07742C13.0865 1.68247 12.5539 1.4624 12.0003 1.4624C11.4467 1.4624 10.9141 1.68247 10.5118 2.07742L2.52441 9.91642C2.09565 10.3371 1.75411 10.8442 1.5207 11.4068C1.28729 11.9693 1.16693 12.5754 1.16699 13.1879V21.9922C1.16699 22.5889 1.39527 23.1612 1.80159 23.5832C2.20792 24.0051 2.75902 24.2422 3.33366 24.2422H20.667C21.2416 24.2422 21.7927 24.0051 22.1991 23.5832C22.6054 23.1612 22.8337 22.5889 22.8337 21.9922Z" stroke="#F8F8F8" stroke-width="2" stroke-linecap="round" stroke-linejoin="round"/>
</svg>
