<svg width="24" height="28" viewBox="0 0 24 28" fill="none" xmlns="http://www.w3.org/2000/svg">
<path d="M21.333 7.59583H2.66634C2.31272 7.59583 1.97358 7.7262 1.72353 7.95825C1.47348 8.19031 1.33301 8.50505 1.33301 8.83323V24.9196C1.33301 25.2477 1.47348 25.5625 1.72353 25.7945C1.97358 26.0266 2.31272 26.157 2.66634 26.157H21.333C21.6866 26.157 22.0258 26.0266 22.2758 25.7945C22.5259 25.5625 22.6663 25.2477 22.6663 24.9196V8.83323C22.6663 8.50505 22.5259 8.19031 22.2758 7.95825C22.0258 7.7262 21.6866 7.59583 21.333 7.59583Z" stroke="#F8F8F8" stroke-width="2" stroke-linecap="round" stroke-linejoin="round"/>
<path d="M7.33301 10.0707V5.73975C7.33301 5.171 7.45371 4.60782 7.68824 4.08237C7.92276 3.55692 8.2665 3.07948 8.69984 2.67731C9.13318 2.27515 9.64763 1.95614 10.2138 1.73849C10.78 1.52084 11.3868 1.40881 11.9997 1.40881C12.6125 1.40881 13.2193 1.52084 13.7855 1.73849C14.3517 1.95614 14.8662 2.27515 15.2995 2.67731C15.7328 3.07948 16.0766 3.55692 16.3111 4.08237C16.5456 4.60782 16.6663 5.171 16.6663 5.73975V10.0707" stroke="#F8F8F8" stroke-width="2" stroke-linecap="round" stroke-linejoin="round"/>
</svg>
