<svg width="26" height="28" viewBox="0 0 26 28" fill="none" xmlns="http://www.w3.org/2000/svg">
<path d="M23.1053 8.49219H2.89474C1.8483 8.49219 1 9.42206 1 10.5691V24.4153C1 25.5623 1.8483 26.4922 2.89474 26.4922H23.1053C24.1517 26.4922 25 25.5623 25 24.4153V10.5691C25 9.42206 24.1517 8.49219 23.1053 8.49219Z" stroke="white" stroke-width="2" stroke-linejoin="round"/>
<path d="M10.5 2.82552H15.5V0.492188H10.5V2.82552ZM16 3.40885V7.49219H18V3.40885H16ZM10 7.49219V3.40885H8V7.49219H10ZM15.5 2.82552C15.6326 2.82552 15.7598 2.88698 15.8536 2.99638C15.9473 3.10577 16 3.25414 16 3.40885H18C18 2.63531 17.7366 1.89344 17.2678 1.34646C16.7989 0.799478 16.163 0.492188 15.5 0.492188V2.82552ZM10.5 0.492188C9.83696 0.492188 9.20107 0.799478 8.73223 1.34646C8.26339 1.89344 8 2.63531 8 3.40885H10C10 3.25414 10.0527 3.10577 10.1464 2.99638C10.2402 2.88698 10.3674 2.82552 10.5 2.82552V0.492188Z" fill="white"/>
<path d="M9 17.4922H17H9ZM13 13.4922V21.4922V13.4922Z" fill="white"/>
<path d="M9 17.4922H17M13 13.4922V21.4922" stroke="white" stroke-width="2" stroke-linecap="round" stroke-linejoin="round"/>
</svg>
