<svg width="22" height="29" viewBox="0 0 22 29" fill="none" xmlns="http://www.w3.org/2000/svg">
<path d="M10.9997 28.6589C16.301 28.6589 21.6663 26.7124 21.6663 22.9922V5.99223C21.6663 2.27206 16.301 0.325562 10.9997 0.325562C5.69834 0.325562 0.333008 2.27206 0.333008 5.99223V22.9922C0.333008 26.7124 5.69834 28.6589 10.9997 28.6589ZM10.9997 25.8256C6.03701 25.8256 2.99967 23.991 2.99967 22.9922V21.1959C5.05434 22.3831 8.03567 22.9922 10.9997 22.9922C13.9637 22.9922 16.945 22.3831 18.9997 21.1959V22.9922C18.9997 23.991 15.9623 25.8256 10.9997 25.8256ZM10.9997 3.1589C15.9623 3.1589 18.9997 4.99348 18.9997 5.99223C18.9997 6.99098 15.9623 8.82556 10.9997 8.82556C6.03701 8.82556 2.99967 6.99098 2.99967 5.99223C2.99967 4.99348 6.03701 3.1589 10.9997 3.1589ZM2.99967 9.86256C5.05434 11.0497 8.03567 11.6589 10.9997 11.6589C13.9637 11.6589 16.945 11.0497 18.9997 9.86256V11.6589C18.9997 12.6576 15.9623 14.4922 10.9997 14.4922C6.03701 14.4922 2.99967 12.6576 2.99967 11.6589V9.86256ZM2.99967 15.5292C5.05434 16.7164 8.03567 17.3256 10.9997 17.3256C13.9637 17.3256 16.945 16.7164 18.9997 15.5292V17.3256C18.9997 18.3243 15.9623 20.1589 10.9997 20.1589C6.03701 20.1589 2.99967 18.3243 2.99967 17.3256V15.5292Z" fill="white"/>
</svg>
