<svg width="31" height="21" viewBox="0 0 31 21" fill="none" xmlns="http://www.w3.org/2000/svg">
<path d="M30.0889 11.1513C27.1157 17.5501 24.5304 20.407 21.6994 20.407C18.1315 20.407 16.0374 15.9084 13.8269 11.1513C12.8962 9.14767 11.9396 7.07937 10.9571 5.60571C10.1298 4.36472 9.34126 3.6796 8.77248 3.6796C8.2037 3.6796 6.40686 4.22253 3.201 11.1513C3.02615 11.525 2.71001 11.814 2.32212 11.9546C1.93424 12.0952 1.50639 12.0759 1.13269 11.9011C0.758996 11.7262 0.470062 11.4101 0.329455 11.0222C0.188848 10.6343 0.208085 10.2065 0.382935 9.8328C3.35612 3.43399 5.94149 0.577148 8.77248 0.577148C12.3403 0.577148 14.4345 5.0757 16.645 9.8328C17.5757 11.8365 18.5323 13.9048 19.5147 15.3784C20.342 16.6194 21.1306 17.3045 21.6994 17.3045C22.2681 17.3045 24.065 16.7616 27.2709 9.8328C27.3574 9.64776 27.4796 9.48159 27.6304 9.34377C27.7812 9.20595 27.9577 9.09918 28.1497 9.02956C28.3418 8.95994 28.5457 8.92882 28.7498 8.938C28.9538 8.94718 29.1541 8.99646 29.3392 9.08304C29.5242 9.16961 29.6904 9.29179 29.8282 9.44259C29.966 9.59338 30.0728 9.76985 30.1424 9.96191C30.212 10.154 30.2431 10.3579 30.2339 10.5619C30.2248 10.766 30.1755 10.9663 30.0889 11.1513Z" fill="white"/>
</svg>
