<?xml version="1.0" standalone="no"?>
<!DOCTYPE svg PUBLIC "-//W3C//DTD SVG 20010904//EN"
 "http://www.w3.org/TR/2001/REC-SVG-20010904/DTD/svg10.dtd">
<svg version="1.0" xmlns="http://www.w3.org/2000/svg"
 width="512.000000pt" height="512.000000pt" viewBox="0 0 512.000000 512.000000"
 preserveAspectRatio="xMidYMid meet">
<metadata>
Created by potrace 1.14, written by Peter Selinger 2001-2017
</metadata>
<g transform="translate(0.000000,512.000000) scale(0.100000,-0.100000)"
fill="#000000" stroke="none">
<path d="M15 4105 c12 -37 161 -503 180 -560 28 -85 181 -562 189 -590 3 -11
5 -23 3 -26 -1 -3 3 -12 9 -20 9 -11 18 -37 29 -79 0 -3 36 -113 79 -245 115
-355 266 -825 278 -865 6 -19 13 -42 16 -50 3 -8 6 -17 7 -20 1 -3 4 -12 8
-20 8 -20 40 -123 43 -135 11 -51 101 -309 120 -341 30 -52 84 -100 143 -126
44 -20 65 -21 520 -22 525 -1 532 0 599 61 45 41 175 259 188 315 8 37 12 455
4 467 -13 19 -40 17 -77 -7 -61 -41 -157 -106 -168 -115 -5 -4 -62 -44 -125
-89 -63 -45 -149 -105 -190 -135 -42 -30 -84 -52 -95 -51 -23 4 -104 135 -97
160 2 9 69 79 149 155 80 76 174 165 208 198 35 33 133 127 218 208 114 108
159 158 168 185 7 21 13 110 15 217 3 205 5 220 43 295 45 90 101 102 145 31
51 -80 59 -122 61 -331 1 -156 5 -201 17 -225 14 -25 88 -99 408 -405 20 -19
103 -98 183 -174 97 -92 147 -147 147 -160 0 -30 -72 -150 -93 -154 -15 -3
-213 131 -507 341 -115 83 -143 91 -152 44 -2 -12 -3 -117 -3 -233 l1 -211 37
-74 c62 -125 130 -230 169 -262 21 -16 57 -35 81 -41 29 -7 200 -11 514 -11
l470 1 56 28 c58 30 109 78 138 131 12 22 154 440 164 485 11 44 29 98 37 108
6 6 8 12 5 12 -3 0 6 33 19 73 14 39 27 77 28 82 1 6 15 48 30 95 15 47 52
164 83 260 30 96 58 182 61 190 3 8 6 17 7 20 1 3 4 12 7 20 3 8 17 51 31 95
14 44 50 157 80 250 30 94 83 258 117 365 34 107 64 202 67 210 3 8 7 20 9 25
1 6 13 44 27 85 53 161 179 556 181 565 1 11 -618 14 -683 3 -70 -13 -147 -53
-200 -106 -69 -69 -79 -90 -157 -337 -16 -49 -29 -92 -29 -95 -1 -3 -15 -50
-33 -105 -17 -55 -32 -104 -33 -110 -1 -5 -6 -21 -11 -35 -5 -14 -44 -133 -85
-265 -41 -132 -82 -262 -91 -290 -8 -27 -16 -54 -18 -60 -1 -5 -16 -54 -33
-107 -18 -54 -32 -101 -33 -105 0 -5 -6 -24 -13 -43 -8 -19 -33 -97 -56 -173
-24 -75 -46 -134 -49 -130 -4 5 -21 53 -39 108 -65 203 -192 591 -201 610 -4
11 -27 81 -50 155 -23 74 -46 144 -51 155 -4 11 -53 160 -109 330 -104 318
-131 379 -202 453 -100 106 -209 152 -368 157 -97 3 -236 -41 -301 -95 -109
-91 -147 -151 -208 -331 -45 -134 -354 -1068 -356 -1079 -1 -3 -34 -104 -74
-225 -40 -121 -74 -226 -74 -232 -1 -32 -15 -4 -47 95 -18 59 -34 109 -35 112
0 3 -3 10 -7 16 -4 6 -9 21 -12 35 -2 13 -14 53 -26 89 -12 36 -24 75 -26 88
-3 13 -11 40 -19 60 -7 20 -30 91 -50 157 -20 66 -40 131 -45 145 -29 83 -110
349 -110 361 0 8 -4 19 -8 25 -7 7 -28 68 -38 109 -4 16 -121 386 -135 425
-31 88 -105 165 -203 211 l-70 33 -352 1 c-235 0 -351 -3 -349 -10z"/>
</g>
</svg>
